<svg width="111" height="35" viewBox="0 0 111 35" fill="none" xmlns="http://www.w3.org/2000/svg">
<g filter="url(#filter0_d)">
<path d="M20.5609 19.5733H11.1618L9.05085 25.6787H6L14.567 2.28535H17.1556L25.7381 25.6787H22.7026L20.5609 19.5733ZM12.0555 17.0347H19.6826L15.8613 6.09319L12.0555 17.0347Z" fill="url(#paint0_linear)"/>
<path d="M36.3698 10.9614C35.9384 10.8865 35.471 10.849 34.9676 10.849C33.0981 10.849 31.8295 11.6791 31.1618 13.3393V25.6787H28.3112V8.29434H31.0847L31.131 10.3027C32.0657 8.74957 33.3909 7.97301 35.1063 7.97301C35.661 7.97301 36.0822 8.04799 36.3698 8.19794V10.9614Z" fill="url(#paint1_linear)"/>
<path d="M43.6425 4.08483V8.29434H46.755V10.5919H43.6425V21.3728C43.6425 22.069 43.7812 22.5938 44.0586 22.9473C44.3359 23.2901 44.8084 23.4614 45.4761 23.4614C45.8048 23.4614 46.2568 23.3972 46.832 23.2686V25.6787C46.0822 25.8929 45.3528 26 44.6441 26C43.3703 26 42.4099 25.5983 41.7627 24.795C41.1156 23.9916 40.792 22.8509 40.792 21.3728V10.5919H37.7565V8.29434H40.792V4.08483H43.6425Z" fill="url(#paint2_linear)"/>
<path d="M62.9183 15.3477H53.5038V25.6787H50.5455V2.28535H64.4438V4.82391H53.5038V12.8252H62.9183V15.3477Z" fill="url(#paint3_linear)"/>
<path d="M70.6379 25.6787H67.7874V8.29434H70.6379V25.6787ZM67.5562 3.68316C67.5562 3.20116 67.6949 2.79413 67.9723 2.46208C68.2599 2.13003 68.681 1.96401 69.2357 1.96401C69.7904 1.96401 70.2116 2.13003 70.4992 2.46208C70.7869 2.79413 70.9307 3.20116 70.9307 3.68316C70.9307 4.16517 70.7869 4.56684 70.4992 4.88818C70.2116 5.20951 69.7904 5.37018 69.2357 5.37018C68.681 5.37018 68.2599 5.20951 67.9723 4.88818C67.6949 4.56684 67.5562 4.16517 67.5562 3.68316Z" fill="url(#paint4_linear)"/>
<path d="M77.9106 8.29434L78.0031 10.4794C79.2768 8.80848 80.9409 7.97301 82.9954 7.97301C86.5187 7.97301 88.2958 10.0456 88.3267 14.1909V25.6787H85.4761V14.1748C85.4658 12.9216 85.1885 11.9951 84.6441 11.3952C84.1099 10.7954 83.2727 10.4955 82.1325 10.4955C81.208 10.4955 80.3965 10.7526 79.698 11.2667C78.9995 11.7808 78.4551 12.4557 78.0647 13.2911V25.6787H75.2142V8.29434H77.9106Z" fill="url(#paint5_linear)"/>
<path d="M91.9322 16.8419C91.9322 14.1748 92.5383 12.0326 93.7504 10.4152C94.9625 8.78706 96.5496 7.97301 98.5116 7.97301C100.463 7.97301 102.009 8.66924 103.149 10.0617V1H106V25.6787H103.381L103.242 23.8149C102.102 25.2716 100.515 26 98.4807 26C96.5496 26 94.9728 25.1752 93.7504 23.5257C92.5383 21.8762 91.9322 19.7232 91.9322 17.0668V16.8419ZM94.7827 17.1793C94.7827 19.1502 95.1731 20.6926 95.9538 21.8066C96.7345 22.9205 97.813 23.4775 99.1895 23.4775C100.997 23.4775 102.317 22.6313 103.149 20.9389V12.9537C102.297 11.3149 100.987 10.4955 99.2203 10.4955C97.8233 10.4955 96.7345 11.0578 95.9538 12.1825C95.1731 13.3072 94.7827 14.9728 94.7827 17.1793Z" fill="url(#paint6_linear)"/>
<path d="M9.05085 26.1787H9.40701L9.5234 25.8421L11.518 20.0733H20.2064L22.2308 25.8442L22.3481 26.1787H22.7026H25.7381H26.4541L26.2075 25.5065L17.625 2.11313L17.5048 1.78535H17.1556H14.567H14.2177L14.0975 2.11341L5.53049 25.5067L5.28442 26.1787H6H9.05085ZM36.2842 11.4541L36.8698 11.5558V10.9614V8.19794V7.89475L36.601 7.75458C36.2081 7.54975 35.6918 7.47301 35.1063 7.47301C33.7023 7.47301 32.5273 7.95155 31.5984 8.88266L31.5846 8.28284L31.5734 7.79434H31.0847H28.3112H27.8112V8.29434V25.6787V26.1787H28.3112H31.1618H31.6618V25.6787V13.4385C31.9619 12.7316 32.3746 12.2258 32.8878 11.89C33.4236 11.5394 34.1074 11.349 34.9676 11.349C35.4464 11.349 35.8848 11.3847 36.2842 11.4541ZM44.1425 4.08483V3.58483H43.6425H40.792H40.292V4.08483V7.79434H37.7565H37.2565V8.29434V10.5919V11.0919H37.7565H40.292V21.3728C40.292 22.9168 40.6293 24.185 41.3733 25.1087C42.1375 26.0572 43.2581 26.5 44.6441 26.5C45.4037 26.5 46.1793 26.3852 46.9694 26.1594L47.332 26.0558V25.6787V23.2686V22.6446L46.723 22.7807C46.1601 22.9064 45.7501 22.9614 45.4761 22.9614C44.8834 22.9614 44.5922 22.8097 44.4495 22.6356C44.2713 22.4065 44.1425 22.0122 44.1425 21.3728V11.0919H46.755H47.255V10.5919V8.29434V7.79434H46.755H44.1425V4.08483ZM62.9183 15.8477H63.4183V15.3477V12.8252V12.3252H62.9183H54.0038V5.32391H64.4438H64.9438V4.82391V2.28535V1.78535H64.4438H50.5455H50.0455V2.28535V25.6787V26.1787H50.5455H53.5038H54.0038V25.6787V15.8477H62.9183ZM70.6379 26.1787H71.1379V25.6787V8.29434V7.79434H70.6379H67.7874H67.2874V8.29434V25.6787V26.1787H67.7874H70.6379ZM67.5943 2.13472L67.5943 2.13466L67.5885 2.14155C67.2274 2.57389 67.0562 3.09824 67.0562 3.68316C67.0562 4.2678 67.2274 4.79043 67.5938 5.21487L67.5937 5.21492L67.5997 5.22164C68.0077 5.67745 68.5822 5.87018 69.2357 5.87018C69.8893 5.87018 70.4638 5.67745 70.8718 5.22164C71.2513 4.79764 71.4307 4.27264 71.4307 3.68316C71.4307 3.09349 71.2514 2.56674 70.8772 2.13472C70.4706 1.66539 69.8944 1.46401 69.2357 1.46401C68.5771 1.46401 68.0009 1.66539 67.5943 2.13472ZM78.4102 8.27321L78.3899 7.79434H77.9106H75.2142H74.7142V8.29434V25.6787V26.1787H75.2142H78.0647H78.5647V25.6787V13.4047C78.9177 12.686 79.3945 12.1109 79.9944 11.6694C80.6012 11.2228 81.3072 10.9955 82.1325 10.9955C83.1916 10.9955 83.8658 11.2731 84.2706 11.7278L84.2738 11.7313C84.7005 12.2014 84.9661 12.9832 84.9761 14.1771V25.6787V26.1787H85.4761H88.3267H88.8267V25.6787L88.8267 14.1909L88.8266 14.1872C88.8108 12.0552 88.3468 10.3643 87.3503 9.20202C86.3407 8.02454 84.8576 7.47301 82.9954 7.47301C81.2107 7.47301 79.6891 8.06502 78.4508 9.23257L78.4102 8.27321ZM103.149 0.5H102.649V1V8.85248C101.527 7.93067 100.139 7.47301 98.5116 7.47301C96.3855 7.47301 94.6524 8.36667 93.3498 10.1159C92.0552 11.8438 91.4322 14.1015 91.4322 16.8419V17.0668C91.4322 19.798 92.0558 22.064 93.3475 23.8218L93.3487 23.8234C94.6584 25.5908 96.3798 26.5 98.4807 26.5C100.216 26.5 101.675 25.9976 102.827 24.9832L102.882 25.7158L102.916 26.1787H103.381H106H106.5V25.6787V1V0.5H106H103.149ZM12.7588 16.5347L15.8623 7.61238L18.9783 16.5347H12.7588ZM96.3632 21.5196C95.6625 20.5197 95.2827 19.0915 95.2827 17.1793C95.2827 15.0177 95.6677 13.4715 96.3645 12.4676C97.0495 11.4808 97.9832 10.9955 99.2203 10.9955C100.024 10.9955 100.698 11.1808 101.263 11.5339C101.801 11.8711 102.267 12.3779 102.649 13.0786V20.8202C102.274 21.5481 101.809 22.0733 101.266 22.4219C100.698 22.7859 100.013 22.9775 99.1895 22.9775C97.9738 22.9775 97.049 22.4981 96.3632 21.5196Z" stroke="#131D32"/>
</g>
<defs>
<filter id="filter0_d" x="0.568832" y="0" width="110.431" height="35" filterUnits="userSpaceOnUse" color-interpolation-filters="sRGB">
<feFlood flood-opacity="0" result="BackgroundImageFix"/>
<feColorMatrix in="SourceAlpha" type="matrix" values="0 0 0 0 0 0 0 0 0 0 0 0 0 0 0 0 0 0 127 0" result="hardAlpha"/>
<feOffset dy="4"/>
<feGaussianBlur stdDeviation="2"/>
<feComposite in2="hardAlpha" operator="out"/>
<feColorMatrix type="matrix" values="0 0 0 0 0 0 0 0 0 0 0 0 0 0 0 0 0 0 0.25 0"/>
<feBlend mode="normal" in2="BackgroundImageFix" result="effect1_dropShadow"/>
<feBlend mode="normal" in="SourceGraphic" in2="effect1_dropShadow" result="shape"/>
</filter>
<linearGradient id="paint0_linear" x1="56" y1="1" x2="56" y2="26" gradientUnits="userSpaceOnUse">
<stop stop-color="#F91917"/>
<stop offset="1" stop-color="#131D32"/>
</linearGradient>
<linearGradient id="paint1_linear" x1="56" y1="1" x2="56" y2="26" gradientUnits="userSpaceOnUse">
<stop stop-color="#F91917"/>
<stop offset="1" stop-color="#131D32"/>
</linearGradient>
<linearGradient id="paint2_linear" x1="56" y1="1" x2="56" y2="26" gradientUnits="userSpaceOnUse">
<stop stop-color="#F91917"/>
<stop offset="1" stop-color="#131D32"/>
</linearGradient>
<linearGradient id="paint3_linear" x1="56" y1="1" x2="56" y2="26" gradientUnits="userSpaceOnUse">
<stop stop-color="#F91917"/>
<stop offset="1" stop-color="#131D32"/>
</linearGradient>
<linearGradient id="paint4_linear" x1="56" y1="1" x2="56" y2="26" gradientUnits="userSpaceOnUse">
<stop stop-color="#F91917"/>
<stop offset="1" stop-color="#131D32"/>
</linearGradient>
<linearGradient id="paint5_linear" x1="56" y1="1" x2="56" y2="26" gradientUnits="userSpaceOnUse">
<stop stop-color="#F91917"/>
<stop offset="1" stop-color="#131D32"/>
</linearGradient>
<linearGradient id="paint6_linear" x1="56" y1="1" x2="56" y2="26" gradientUnits="userSpaceOnUse">
<stop stop-color="#F91917"/>
<stop offset="1" stop-color="#131D32"/>
</linearGradient>
</defs>
</svg>
