<svg width="111" height="101" viewBox="0 0 111 101" fill="none" xmlns="http://www.w3.org/2000/svg">
<g filter="url(#filter0_i)">
<path d="M90.3663 51.5612L91.0048 52.2324C92.081 53.3566 92.9229 54.7039 93.4767 56.1888C94.2738 58.3016 94.465 60.6134 94.0269 62.8392C93.5887 65.0649 92.5403 67.1071 91.0111 68.7138L63.5435 97.5819C62.5138 98.6649 61.2912 99.524 59.9456 100.11C58.6 100.696 57.1578 100.998 55.7012 100.998C54.2446 100.998 52.8024 100.696 51.4568 100.11C50.1111 99.524 48.8886 98.6649 47.859 97.5819L20.3997 68.7138C19.37 67.6321 18.5533 66.3476 17.9963 64.9338C17.4392 63.5199 17.1529 62.0046 17.1536 60.4742C17.1543 58.944 17.442 57.4288 18.0002 56.0156C18.5585 54.6023 19.3764 53.3186 20.4071 52.238L21.0456 51.5668L38.9822 70.4167H72.4245L90.3663 51.5612Z" fill="url(#paint0_linear)"/>
<g style="mix-blend-mode:multiply" opacity="0.2">
<g style="mix-blend-mode:multiply" opacity="0.2">
<path d="M90.366 51.5612L91.0045 52.2324C92.0808 53.3566 92.9227 54.7039 93.4764 56.1888L74.0619 76.589H38.5359L18.2989 55.3153C18.8352 54.1737 19.5459 53.1323 20.4027 52.2324L21.0412 51.5612L38.9819 70.4167H72.4241L90.366 51.5612Z" fill="black"/>
</g>
</g>
<path d="M21.0395 51.5614L38.9772 70.4179H72.4268L90.3654 51.5614L55.703 15.1232L21.0395 51.5614Z" fill="url(#paint1_linear)"/>
<path d="M61.719 3.62099L92.8261 36.3227C94.0085 37.5659 94.8161 39.1478 95.1484 40.8707C95.4807 42.5936 95.3227 44.3813 94.6942 46.0103C94.6493 46.1495 94.5941 46.2849 94.5291 46.415C94.1074 47.3646 93.5311 48.2295 92.8261 48.9704L72.4198 70.4167H38.9818L18.5754 48.9704C17.7853 48.1401 17.1585 47.1542 16.7309 46.0691C16.3033 44.9841 16.0832 43.8211 16.0832 42.6466C16.0832 41.4722 16.3033 40.3091 16.7309 39.2242C17.1585 38.1391 17.7853 37.1532 18.5754 36.3227L49.6835 3.62099C50.4734 2.78948 51.4115 2.12984 52.444 1.67977C53.4766 1.22969 54.5834 0.998047 55.7012 0.998047C56.8191 0.998047 57.9259 1.22969 58.9586 1.67977C59.9912 2.12984 60.9292 2.78948 61.719 3.62099Z" fill="url(#paint2_linear)"/>
<g style="mix-blend-mode:screen" opacity="0.5">
<g style="mix-blend-mode:screen" opacity="0.5">
<path d="M61.7191 3.62094L85.3484 28.4574C85.3484 28.4574 84.751 27.9311 83.7348 26.9923C82.7187 26.0535 81.2556 24.7188 79.5526 23.0724C77.8496 21.4259 75.8647 19.4853 73.7673 17.37C71.6698 15.2546 69.4819 12.9812 67.2846 10.7L64.0438 7.24894C62.9719 6.14318 61.9284 4.92683 60.946 3.92059C60.0204 2.98024 58.8896 2.293 57.6526 1.91917C56.5255 1.57902 55.3436 1.48794 54.1814 1.65161C53.183 1.80806 52.2186 2.1475 51.3318 2.65451C50.6376 3.0691 49.994 3.57113 49.4153 4.14948C48.3992 5.08828 47.8018 5.60026 47.8018 5.60026L49.6836 3.62205C50.4733 2.79048 51.4114 2.13073 52.4439 1.68056C53.4764 1.23039 54.5833 0.998638 55.7011 0.998535C56.8189 0.998432 57.9258 1.23001 58.9585 1.67998C59.9911 2.12997 60.9291 2.78951 61.7191 3.62094Z" fill="white"/>
</g>
</g>
<g style="mix-blend-mode:multiply" opacity="0.2">
<g style="mix-blend-mode:multiply" opacity="0.2">
<path d="M94.6941 46.0103C94.6492 46.1495 94.594 46.2849 94.529 46.415C94.1072 47.3645 93.5308 48.2294 92.826 48.9704L90.3614 51.5612L90.5056 51.7127L89.6946 52.6084L84.1259 58.752L72.9045 70.9187L72.7131 71.121H72.4238L55.699 71.2582C50.1241 71.2725 44.5492 71.2947 38.9742 71.2659H38.6313L38.403 71.0293C32.4354 64.7272 26.5046 58.3915 20.6106 52.0223L21.0429 51.5668L18.5773 48.976C17.7872 48.1455 17.1605 47.1598 16.7329 46.0747C16.3052 44.9896 16.0852 43.8266 16.0852 42.6521C16.0852 41.4776 16.3052 40.3147 16.7329 39.2296C17.1605 38.1446 17.7872 37.1587 18.5773 36.3283L26.5158 27.9831L21.9286 33.0939L19.6281 35.6372C18.8363 36.4178 18.1523 37.3111 17.5959 38.291C16.5499 40.2525 16.2762 42.5665 16.8333 44.7376C17.1026 45.8029 17.5746 46.7997 18.2207 47.6679C18.9344 48.5321 19.6955 49.3517 20.5001 50.1226C20.8231 50.4477 21.1523 50.7795 21.4689 51.1178C27.4639 57.2172 33.4105 63.3675 39.3087 69.5686C44.7687 69.5472 50.2303 69.552 55.6938 69.5829L72.1545 69.7057L83.5148 58.1195L89.359 52.2656L90.211 51.4131L92.2843 49.3486C92.7857 48.8844 93.2475 48.3749 93.6643 47.826C94.075 47.2659 94.4206 46.6564 94.6941 46.0103Z" fill="black"/>
</g>
</g>
<g style="mix-blend-mode:multiply" opacity="0.2">
<g style="mix-blend-mode:multiply" opacity="0.2">
<path d="M87.8609 72.0246L63.5426 97.582C62.513 98.665 61.2905 99.5241 59.9448 100.11C58.5992 100.696 57.1569 100.998 55.7004 100.998C54.2439 100.998 52.8016 100.696 51.456 100.11C50.1104 99.5241 48.8878 98.665 47.8581 97.582L22.3975 70.8149C22.3975 70.8149 23.4073 71.789 25.186 73.4996C26.9227 75.239 29.464 77.6651 32.4303 80.6683C35.3966 83.6715 38.8856 87.1359 42.5588 90.9264C44.3922 92.825 46.295 94.7811 48.2179 96.7737C49.9971 98.7127 52.394 99.8937 54.9499 100.091C57.4892 100.307 60.0133 99.5137 62.0227 97.8673C62.2699 97.6948 62.5244 97.4128 62.779 97.1895L62.9567 97.0159L62.9978 96.9871C62.9915 96.9794 63.0262 96.9584 63.0262 96.9584L63.4722 96.4895C63.9529 95.9986 64.4188 95.5076 64.9006 95.0167C65.8473 94.0491 66.7824 93.0816 67.6954 92.1361C71.377 88.3533 74.865 84.8879 77.8239 81.878C80.7829 78.8681 83.3316 76.4498 85.0819 74.7094C86.8522 72.9943 87.8609 72.0246 87.8609 72.0246Z" fill="black"/>
</g>
</g>
<g style="mix-blend-mode:screen" opacity="0.3">
<g style="mix-blend-mode:screen" opacity="0.3">
<path d="M58.9716 6.50934L90.0798 39.21C90.5102 39.6629 90.8507 40.2013 91.0817 40.7938C91.3125 41.3861 91.4293 42.0208 91.4251 42.6611H19.9807C19.9748 42.0205 20.0909 41.3853 20.3221 40.7926C20.5534 40.1999 20.8951 39.6618 21.3271 39.21L52.4342 6.50934C53.3018 5.59945 54.4774 5.0885 55.7029 5.0885C56.9285 5.0885 58.1039 5.59945 58.9716 6.50934Z" fill="white"/>
</g>
</g>
</g>
<g filter="url(#filter1_d)">
<path d="M20.5609 47.9216H11.1618L9.05085 54.0767H6L14.567 30.4929H17.1556L25.7381 54.0767H22.7026L20.5609 47.9216ZM12.0555 45.3624H19.6826L15.8613 34.3318L12.0555 45.3624Z" fill="white"/>
<path d="M36.3698 39.2397C35.9384 39.1641 35.471 39.1263 34.9676 39.1263C33.0981 39.1263 31.8295 39.9632 31.1618 41.6369V54.0767H28.3112V36.5509H31.0847L31.131 38.5756C32.0657 37.0098 33.3909 36.2269 35.1063 36.2269C35.661 36.2269 36.0822 36.3025 36.3698 36.4537V39.2397Z" fill="white"/>
<path d="M43.6425 32.3071V36.5509H46.755V38.8671H43.6425V49.7358C43.6425 50.4377 43.7812 50.9668 44.0586 51.3231C44.3359 51.6687 44.8084 51.8415 45.4761 51.8415C45.8048 51.8415 46.2568 51.7767 46.832 51.6471V54.0767C46.0822 54.2927 45.3528 54.4007 44.6441 54.4007C43.3703 54.4007 42.4099 53.9957 41.7627 53.1859C41.1156 52.376 40.792 51.2259 40.792 49.7358V38.8671H37.7565V36.5509H40.792V32.3071H43.6425Z" fill="white"/>
<path d="M62.9183 43.6616H53.5039V54.0767H50.5455V30.4929H64.4438V33.0522H53.5039V41.1186H62.9183V43.6616Z" fill="white"/>
<path d="M70.6379 54.0767H67.7874V36.5509H70.6379V54.0767ZM67.5562 31.9021C67.5562 31.4162 67.6949 31.0059 67.9723 30.6711C68.2599 30.3363 68.681 30.169 69.2357 30.169C69.7904 30.169 70.2116 30.3363 70.4992 30.6711C70.7868 31.0059 70.9307 31.4162 70.9307 31.9021C70.9307 32.3881 70.7868 32.793 70.4992 33.1169C70.2116 33.4409 69.7904 33.6029 69.2357 33.6029C68.681 33.6029 68.2599 33.4409 67.9723 33.1169C67.6949 32.793 67.5562 32.3881 67.5562 31.9021Z" fill="white"/>
<path d="M77.9106 36.5509L78.0031 38.7537C79.2768 37.0692 80.9409 36.2269 82.9954 36.2269C86.5187 36.2269 88.2958 38.3164 88.3267 42.4954V54.0767H85.4761V42.4792C85.4658 41.2158 85.1885 40.2817 84.6441 39.677C84.1099 39.0723 83.2727 38.7699 82.1325 38.7699C81.208 38.7699 80.3965 39.0291 79.698 39.5474C78.9995 40.0657 78.4551 40.7461 78.0647 41.5883V54.0767H75.2142V36.5509H77.9106Z" fill="white"/>
<path d="M91.9322 45.168C91.9322 42.4792 92.5383 40.3195 93.7504 38.6889C94.9625 37.0476 96.5496 36.2269 98.5116 36.2269C100.463 36.2269 102.009 36.9288 103.149 38.3326V29.1971H106V54.0767H103.381L103.242 52.1978C102.102 53.6664 100.515 54.4007 98.4807 54.4007C96.5496 54.4007 94.9728 53.5692 93.7504 51.9062C92.5383 50.2433 91.9322 48.0728 91.9322 45.3948V45.168ZM94.7827 45.5082C94.7827 47.4951 95.1731 49.0501 95.9538 50.1731C96.7345 51.2961 97.813 51.8577 99.1895 51.8577C100.997 51.8577 102.317 51.0046 103.149 49.2984V41.2482C102.297 39.596 100.987 38.7699 99.2203 38.7699C97.8233 38.7699 96.7345 39.3369 95.9538 40.4707C95.1731 41.6045 94.7827 43.2837 94.7827 45.5082Z" fill="white"/>
<path d="M9.05085 54.5767H9.40796L9.52381 54.2389L11.5189 48.4216H20.2054L22.2304 54.2411L22.3472 54.5767H22.7026H25.7381H26.4521L26.2079 53.9057L17.6255 30.3219L17.5057 29.9929H17.1556H14.567H14.2167L14.0971 30.3222L5.53005 53.906L5.2864 54.5767H6H9.05085ZM36.2835 39.7322L36.8698 39.8349V39.2397V36.4537V36.1516L36.6024 36.0111C36.2091 35.8043 35.6921 35.7269 35.1063 35.7269C33.7017 35.7269 32.5268 36.2094 31.5985 37.1468L31.5846 36.5394L31.5735 36.0509H31.0847H28.3112H27.8112V36.5509V54.0767V54.5767H28.3112H31.1618H31.6618V54.0767V41.7353C31.9624 41.0209 32.3758 40.5101 32.8893 40.1713C33.4249 39.818 34.1081 39.6263 34.9676 39.6263C35.4462 39.6263 35.8844 39.6622 36.2835 39.7322ZM44.1425 32.3071V31.8071H43.6425H40.792H40.292V32.3071V36.0509H37.7565H37.2565V36.5509V38.8671V39.3671H37.7565H40.292V49.7358C40.292 51.2911 40.6289 52.5679 41.3721 53.498C42.1357 54.4536 43.2567 54.9007 44.6441 54.9007C45.4041 54.9007 46.1801 54.7848 46.9704 54.5572L47.332 54.4531V54.0767V51.6471V51.0219L46.7222 51.1593C46.1594 51.2861 45.7497 51.3415 45.4761 51.3415C44.8846 51.3415 44.5938 51.189 44.4507 51.013C44.2716 50.7808 44.1425 50.3816 44.1425 49.7358V39.3671H46.755H47.255V38.8671V36.5509V36.0509H46.755H44.1425V32.3071ZM62.9183 44.1616H63.4183V43.6616V41.1186V40.6186H62.9183H54.0038V33.5522H64.4438H64.9438V33.0522V30.4929V29.9929H64.4438H50.5455H50.0455V30.4929V54.0767V54.5767H50.5455H53.5038H54.0038V54.0767V44.1616H62.9183ZM70.6379 54.5767H71.1379V54.0767V36.5509V36.0509H70.6379H67.7874H67.2874V36.5509V54.0767V54.5767H67.7874H70.6379ZM67.593 30.3453L67.593 30.3452L67.5872 30.3521C67.2268 30.7872 67.0562 31.3143 67.0562 31.9021C67.0562 32.4896 67.2268 33.015 67.5924 33.4421L67.5924 33.4422L67.5984 33.4489C68.006 33.9081 68.5809 34.1029 69.2357 34.1029C69.8906 34.1029 70.4655 33.9081 70.8731 33.4489C71.252 33.0222 71.4307 32.4944 71.4307 31.9021C71.4307 31.3096 71.2521 30.7801 70.8785 30.3453C70.4723 29.8726 69.8957 29.669 69.2357 29.669C68.5758 29.669 67.9992 29.8726 67.593 30.3453ZM78.4102 36.5299L78.3901 36.0509H77.9106H75.2142H74.7142V36.5509V54.0767V54.5767H75.2142H78.0647H78.5647V54.0767V41.701C78.9182 40.975 79.3956 40.3944 79.9959 39.949C80.6027 39.4987 81.3081 39.2699 82.1325 39.2699C83.1905 39.2699 83.8642 39.5493 84.2693 40.008L84.2725 40.0116C84.7001 40.4866 84.966 41.2765 84.9761 42.4814V54.0767V54.5767H85.4761H88.3267H88.8267V54.0767L88.8267 42.4954L88.8266 42.4917C88.8108 40.3437 88.3472 38.6407 87.3516 37.4701C86.3424 36.2835 84.8589 35.7269 82.9954 35.7269C81.2102 35.7269 79.6887 36.3238 78.4509 37.4996L78.4102 36.5299ZM103.149 28.6971H102.649V29.1971V37.1167C101.528 36.1883 100.139 35.7269 98.5116 35.7269C96.3838 35.7269 94.6505 36.6287 93.3486 38.3913C92.0548 40.1321 91.4322 42.4066 91.4322 45.168V45.3948C91.4322 48.1468 92.0554 50.4297 93.3463 52.2008L93.3475 52.2024C94.6566 53.9832 96.3781 54.9007 98.4807 54.9007C100.216 54.9007 101.676 54.3942 102.827 53.3727L102.882 54.1135L102.916 54.5767H103.381H106H106.5V54.0767V29.1971V28.6971H106H103.149ZM12.7569 44.8624L15.8623 35.862L18.9802 44.8624H12.7569ZM96.3643 49.8877C95.6628 48.8785 95.2827 47.4371 95.2827 45.5082C95.2827 43.328 95.6678 41.7676 96.3656 40.7542C97.0513 39.7583 97.9849 39.2699 99.2203 39.2699C100.023 39.2699 100.697 39.4565 101.261 39.8124C101.8 40.1525 102.266 40.6642 102.649 41.3722V49.1806C102.274 49.916 101.808 50.4462 101.264 50.7979C100.697 51.1647 100.012 51.3577 99.1895 51.3577C97.9755 51.3577 97.0508 50.8753 96.3643 49.8877Z" stroke="black"/>
</g>
<defs>
<filter id="filter0_i" x="16.0832" y="0.998047" width="79.2349" height="104" filterUnits="userSpaceOnUse" color-interpolation-filters="sRGB">
<feFlood flood-opacity="0" result="BackgroundImageFix"/>
<feBlend mode="normal" in="SourceGraphic" in2="BackgroundImageFix" result="shape"/>
<feColorMatrix in="SourceAlpha" type="matrix" values="0 0 0 0 0 0 0 0 0 0 0 0 0 0 0 0 0 0 127 0" result="hardAlpha"/>
<feOffset dy="4"/>
<feGaussianBlur stdDeviation="2"/>
<feComposite in2="hardAlpha" operator="arithmetic" k2="-1" k3="1"/>
<feColorMatrix type="matrix" values="0 0 0 0 0 0 0 0 0 0 0 0 0 0 0 0 0 0 0.25 0"/>
<feBlend mode="normal" in2="shape" result="effect1_innerShadow"/>
</filter>
<filter id="filter1_d" x="0.572806" y="28.1971" width="110.427" height="35.2036" filterUnits="userSpaceOnUse" color-interpolation-filters="sRGB">
<feFlood flood-opacity="0" result="BackgroundImageFix"/>
<feColorMatrix in="SourceAlpha" type="matrix" values="0 0 0 0 0 0 0 0 0 0 0 0 0 0 0 0 0 0 127 0" result="hardAlpha"/>
<feOffset dy="4"/>
<feGaussianBlur stdDeviation="2"/>
<feComposite in2="hardAlpha" operator="out"/>
<feColorMatrix type="matrix" values="0 0 0 0 0 0 0 0 0 0 0 0 0 0 0 0 0 0 0.25 0"/>
<feBlend mode="normal" in2="BackgroundImageFix" result="effect1_dropShadow"/>
<feBlend mode="normal" in="SourceGraphic" in2="effect1_dropShadow" result="shape"/>
</filter>
<linearGradient id="paint0_linear" x1="185.778" y1="390.549" x2="203.913" y2="344.095" gradientUnits="userSpaceOnUse">
<stop stop-color="#233B55"/>
<stop offset="1" stop-color="#131D32"/>
</linearGradient>
<linearGradient id="paint1_linear" x1="185.758" y1="390.519" x2="212.964" y2="345.507" gradientUnits="userSpaceOnUse">
<stop stop-color="#EE0979"/>
<stop offset="0.322" stop-color="#F32555"/>
<stop offset="1" stop-color="#FF6A00"/>
</linearGradient>
<linearGradient id="paint2_linear" x1="208.545" y1="366.557" x2="257.624" y2="299.41" gradientUnits="userSpaceOnUse">
<stop stop-color="#FCC400"/>
<stop offset="0.162" stop-color="#FBC000"/>
<stop offset="0.307" stop-color="#FBB500"/>
<stop offset="0.446" stop-color="#FBA300"/>
<stop offset="0.581" stop-color="#FA8900"/>
<stop offset="0.712" stop-color="#FA6800"/>
<stop offset="0.842" stop-color="#F93F00"/>
<stop offset="0.967" stop-color="#F81000"/>
<stop offset="1" stop-color="#F80300"/>
</linearGradient>
</defs>
</svg>
